<svg width="26" height="25" viewBox="0 0 26 25" fill="none" xmlns="http://www.w3.org/2000/svg">
<path fill-rule="evenodd" clip-rule="evenodd" d="M8.49462 5.9497V7.25245H4.8225L4.0069 19.3968C3.94337 20.3423 4.31995 21.2425 5.0671 21.9315C5.8143 22.6206 6.82551 23 7.91441 23H13L18.0856 22.9999C19.1745 22.9999 20.1857 22.6204 20.9329 21.9314C21.68 21.2424 22.0566 20.3422 21.9931 19.3966L21.1775 7.25233H17.5054V5.94958C17.5054 3.782 15.4875 2.01675 13 2.00012C10.5125 2.01675 8.49462 3.78212 8.49462 5.9497ZM10.0466 5.9497V7.25245H13L15.9534 7.25233V5.94958C15.9534 4.52639 14.6318 3.36674 13 3.35018C11.3682 3.36674 10.0466 4.5265 10.0466 5.9497ZM6.1961 21.0052C6.64702 21.421 7.25728 21.65 7.91441 21.65H13L18.0856 21.6499C18.7427 21.6499 19.353 21.4209 19.8039 21.0051C20.2548 20.5893 20.482 20.046 20.4437 19.4754L19.7135 8.60238H17.5054V10.2938H15.9534V8.60238L13 8.6025H10.0466V10.294H8.49457V8.6025H6.28648L5.5563 19.4755C5.51797 20.0461 5.74518 20.5894 6.1961 21.0052Z" fill="#1364D5"/>
<path d="M13.0355 2C13.0236 2 13.0118 2.00004 13 2.00012M13.0354 3.35C13.0236 3.35 13.0118 3.35006 13 3.35018M13 2.00012C10.5125 2.01675 8.49462 3.78212 8.49462 5.9497V7.25245H4.8225L4.0069 19.3968C3.94337 20.3423 4.31995 21.2425 5.0671 21.9315C5.8143 22.6206 6.82551 23 7.91441 23H13L18.0856 22.9999C19.1745 22.9999 20.1857 22.6204 20.9329 21.9314C21.68 21.2424 22.0566 20.3422 21.9931 19.3966L21.1775 7.25233H17.5054V5.94958C17.5054 3.782 15.4875 2.01675 13 2.00012ZM13 3.35018C11.3682 3.36674 10.0466 4.5265 10.0466 5.9497V7.25245H13L15.9534 7.25233V5.94958C15.9534 4.52639 14.6318 3.36674 13 3.35018ZM7.91441 21.65C7.25728 21.65 6.64702 21.421 6.1961 21.0052C5.74518 20.5894 5.51797 20.0461 5.5563 19.4755L6.28648 8.6025H8.49457V10.294H10.0466V8.6025H13L15.9534 8.60238V10.2938H17.5054V8.60238H19.7135L20.4437 19.4754C20.482 20.046 20.2548 20.5893 19.8039 21.0051C19.353 21.4209 18.7427 21.6499 18.0856 21.6499L13 21.65H7.91441Z" stroke="#1364D5" stroke-width="0.5"/>
</svg>
