<svg width="25" height="25" viewBox="0 0 25 25" fill="none" xmlns="http://www.w3.org/2000/svg">
<path d="M9.2247 1.47934C6.6351 2.24851 4.39916 3.90416 2.909 6.15599C2.70435 6.52497 2.57655 6.93149 2.53333 7.35112V3.31373H1V9.4426H7.13333V7.91038H3.668C5.38476 4.61013 8.77812 2.52024 12.5 2.47102C16.9138 2.5223 20.7827 5.43269 22.0527 9.65711L23.5247 9.22042C21.715 3.13681 15.3128 -0.328965 9.2247 1.47934Z" fill="#1364D5"/>
<path d="M17.8667 15.5715V17.1037H21.332C19.6152 20.4039 16.2219 22.4938 12.5 22.543C8.08616 22.4918 4.21732 19.5814 2.94733 15.3569L1.47533 15.7936C3.29272 21.8749 9.69946 25.3325 15.7852 23.5165C18.4507 22.7211 20.7373 20.9871 22.2213 18.6359C22.3803 18.3361 22.4645 18.0023 22.4667 17.6629V21.7003H24V15.5715H17.8667Z" fill="#1364D5"/>
</svg>
