<svg width="25" height="25" viewBox="0 0 25 25" fill="none" xmlns="http://www.w3.org/2000/svg">
<path d="M12.5 4.81612C9.01714 4.81612 6.50122 7.41184 6.10224 10.2C5.85347 12.0588 6.45429 13.8706 7.70286 15.2412C8.80122 16.4147 9.40204 17.9825 9.40204 19.5971L9.39735 22.1412C9.39735 23.1692 10.2469 24 11.2984 24H13.7486C14.8 24 15.6496 23.1692 15.6496 22.1412L15.6543 19.5971C15.6543 17.9355 16.2035 16.4147 17.2549 15.3398C18.4049 14.1663 19.0057 12.6502 19.0057 11.0824C19.001 7.60429 16.0486 4.81612 12.5 4.81612ZM14.6967 22.1412C14.6967 22.6294 14.2978 23.0237 13.7955 23.0237H11.3453C10.8431 23.0237 10.4441 22.6341 10.4441 22.1412V21.0147H14.692V22.1412H14.6967ZM16.5555 14.6545C15.3069 15.9265 14.6545 17.6867 14.6545 19.5971V20.0384H10.4065V19.5971C10.4065 17.7853 9.65551 15.9782 8.40694 14.6076C7.30857 13.4341 6.85796 11.918 7.0551 10.3502C7.40714 8.00327 9.5898 5.79714 12.5047 5.79714C15.5557 5.79714 18.0059 8.19571 18.0059 11.0824C18.0059 12.4014 17.5037 13.6735 16.5555 14.6545Z" fill="white"/>
<path d="M12.9976 1H11.9978V3.34694H12.9976V1Z" fill="white"/>
<path d="M18.5598 5.5249L19.2592 6.22429L20.9725 4.57673L20.2684 3.87735L18.5598 5.5249Z" fill="white"/>
<path d="M24 11.5706H21.5498V12.5516H24V11.5706Z" fill="white"/>
<path d="M3.4502 11.5706H1V12.5516H3.4502V11.5706Z" fill="white"/>
<path d="M4.71286 3.87265L4.00878 4.57204L5.72204 6.21959L6.42143 5.5202L4.71286 3.87265Z" fill="white"/>
<path d="M12.5 4.81612C9.01714 4.81612 6.50122 7.41184 6.10224 10.2C5.85347 12.0588 6.45429 13.8706 7.70286 15.2412C8.80122 16.4147 9.40204 17.9825 9.40204 19.5971L9.39735 22.1412C9.39735 23.1692 10.2469 24 11.2984 24H13.7486C14.8 24 15.6496 23.1692 15.6496 22.1412L15.6543 19.5971C15.6543 17.9355 16.2035 16.4147 17.2549 15.3398C18.4049 14.1663 19.0057 12.6502 19.0057 11.0824C19.001 7.60429 16.0486 4.81612 12.5 4.81612ZM14.6967 22.1412C14.6967 22.6294 14.2978 23.0237 13.7955 23.0237H11.3453C10.8431 23.0237 10.4441 22.6341 10.4441 22.1412V21.0147H14.692V22.1412H14.6967ZM16.5555 14.6545C15.3069 15.9265 14.6545 17.6867 14.6545 19.5971V20.0384H10.4065V19.5971C10.4065 17.7853 9.65551 15.9782 8.40694 14.6076C7.30857 13.4341 6.85796 11.918 7.0551 10.3502C7.40714 8.00327 9.5898 5.79714 12.5047 5.79714C15.5557 5.79714 18.0059 8.19571 18.0059 11.0824C18.0059 12.4014 17.5037 13.6735 16.5555 14.6545Z" stroke="white" stroke-width="0.7"/>
<path d="M12.9976 1H11.9978V3.34694H12.9976V1Z" stroke="white" stroke-width="0.7"/>
<path d="M18.5598 5.5249L19.2592 6.22429L20.9725 4.57673L20.2684 3.87735L18.5598 5.5249Z" stroke="white" stroke-width="0.7"/>
<path d="M24 11.5706H21.5498V12.5516H24V11.5706Z" stroke="white" stroke-width="0.7"/>
<path d="M3.4502 11.5706H1V12.5516H3.4502V11.5706Z" stroke="white" stroke-width="0.7"/>
<path d="M4.71286 3.87265L4.00878 4.57204L5.72204 6.21959L6.42143 5.5202L4.71286 3.87265Z" stroke="white" stroke-width="0.7"/>
</svg>
