<svg width="25" height="25" viewBox="0 0 25 25" fill="none" xmlns="http://www.w3.org/2000/svg">
<path d="M16.6019 5.5231C16.3211 5.24233 15.8663 5.24233 15.5856 5.5231L1.21058 19.8981C0.929807 20.1789 0.929807 20.6337 1.21058 20.9144L4.08558 23.7894C4.22595 23.9298 4.40986 24 4.59378 24C4.7777 24 4.96157 23.9298 5.10197 23.7894L19.4769 9.41445C19.7577 9.13368 19.7577 8.67888 19.4769 8.3981L16.6019 5.5231ZM4.59373 22.2649L2.73512 20.4063L12.5 10.6414L14.3586 12.5001C14.3586 12.5 4.59373 22.2649 4.59373 22.2649ZM15.375 11.4837L13.5163 9.62502L16.0937 7.04764L17.9524 8.9063L15.375 11.4837Z" fill="white"/>
<path d="M11.0625 6.75001C11.7813 5.31253 12.5 4.59377 13.9376 3.87501C12.5001 3.15624 11.7813 2.43753 11.0625 1C10.3438 2.43748 9.62498 3.15624 8.18755 3.87501C9.62507 4.59377 10.3438 5.31253 11.0625 6.75001Z" fill="white"/>
<path d="M22.5625 11.0625C22.2032 11.7813 21.8437 12.1407 21.125 12.5C21.8438 12.8594 22.2032 13.2188 22.5625 13.9375C22.9219 13.2187 23.2813 12.8594 24 12.5C23.2813 12.1407 22.9219 11.7813 22.5625 11.0625Z" fill="white"/>
<path d="M22.5625 3.15629C21.4844 2.61721 20.9453 2.07817 20.4063 1.00005C19.8672 2.07817 19.3281 2.61725 18.25 3.15629C19.3282 3.69537 19.8672 4.23441 20.4063 5.31253C20.9454 4.23441 21.4844 3.69533 22.5625 3.15629Z" fill="white"/>
</svg>
