<svg width="35" height="27" viewBox="0 0 35 27" fill="none" xmlns="http://www.w3.org/2000/svg">
<defs>
<linearGradient id="paint0_linear_45_25" x1="0" y1="0" x2="26.1157" y2="33.8536" gradientUnits="userSpaceOnUse">
<stop stop-color="#CF0ABA"/>
<stop offset="1" stop-color="#2EA7F9"/>
</linearGradient>
<linearGradient id="paint1_linear_45_25" x1="0" y1="0" x2="26.1157" y2="33.8536" gradientUnits="userSpaceOnUse">
<stop stop-color="#CF0ABA"/>
<stop offset="1" stop-color="#2EA7F9"/>
</linearGradient>
</defs>
<path d="M33.8355 4.20652C33.1369 3.48913 32.1721 3.06522 31.0741 3.06522H25.5513V3C25.5513 2.18478 25.2186 1.40217 24.653 0.880435C24.0875 0.326087 23.3222 0 22.4905 0H12.5095C11.6445 0 10.8793 0.326087 10.3137 0.880435C9.7481 1.43478 9.4154 2.18478 9.4154 3V3.06522H3.92586C2.82795 3.06522 1.86312 3.48913 1.16445 4.20652C0.465779 4.8913 0 5.86957 0 6.91304V23.1522C0 24.2283 0.432509 25.1739 1.16445 25.8587C1.86312 26.5435 2.86122 27 3.92586 27H31.0741C32.1721 27 33.1369 26.5761 33.8355 25.8587C34.5342 25.1739 35 24.1957 35 23.1522V6.91304C35 5.83696 34.5675 4.8913 33.8355 4.20652ZM33.27 23.1522H33.2367C33.2367 23.7391 33.0038 24.2609 32.6046 24.6522C32.2053 25.0435 31.673 25.2717 31.0741 25.2717H3.92586C3.327 25.2717 2.79468 25.0435 2.39544 24.6522C1.9962 24.2609 1.76331 23.7391 1.76331 23.1522V6.91304C1.76331 6.32609 1.9962 5.80435 2.39544 5.41304C2.79468 5.02174 3.327 4.79348 3.92586 4.79348H10.347C10.846 4.79348 11.2452 4.40217 11.2452 3.91304V2.96739C11.2452 2.6087 11.3783 2.28261 11.6112 2.05435C11.8441 1.82609 12.1768 1.69565 12.5428 1.69565H22.4905C22.8565 1.69565 23.1892 1.82609 23.4221 2.05435C23.6549 2.28261 23.788 2.6087 23.788 2.96739V3.91304C23.788 4.40217 24.1873 4.79348 24.6863 4.79348H31.1074C31.7063 4.79348 32.2386 5.02174 32.6378 5.41304C33.0371 5.80435 33.27 6.32609 33.27 6.91304V23.1522Z" fill="url(#paint0_linear_45_25)"/>
<path d="M17.5002 7.01081C15.2378 7.01081 13.1751 7.92385 11.7112 9.35863C10.214 10.826 9.31575 12.8152 9.31575 15.0325C9.31575 17.2499 10.2473 19.2717 11.7112 20.7065C13.2083 22.1738 15.2378 23.0543 17.5002 23.0543C19.7625 23.0543 21.8253 22.1412 23.2891 20.7065C24.7863 19.2391 25.6846 17.2499 25.6846 15.0325C25.6846 12.8152 24.753 10.7934 23.2891 9.35863C21.8253 7.92385 19.7625 7.01081 17.5002 7.01081ZM22.0249 19.4999C20.8604 20.6086 19.2635 21.326 17.5002 21.326C15.7368 21.326 14.1399 20.6086 12.9754 19.4999C11.811 18.3586 11.1123 16.7934 11.1123 15.0652C11.1123 13.3369 11.8443 11.7717 12.9754 10.6304C14.1399 9.48907 15.7368 8.80429 17.5002 8.80429C19.2635 8.80429 20.8604 9.52168 22.0249 10.6304C23.1893 11.7717 23.888 13.3369 23.888 15.0652C23.9213 16.7934 23.1893 18.3586 22.0249 19.4999Z" fill="url(#paint1_linear_45_25)"/>

</svg>
