<svg width="26" height="25" viewBox="0 0 26 25" fill="none" xmlns="http://www.w3.org/2000/svg">
<path d="M18.2069 9.45161C20.2984 9.45161 22 7.78022 22 5.72581C22 3.6714 20.2984 2 18.2069 2C16.1154 2 14.4138 3.6714 14.4138 5.72581C14.4138 6.01906 14.4496 6.30412 14.5151 6.57807L8.47903 9.87188C7.79179 9.19426 6.84152 8.77419 5.7931 8.77419C3.70159 8.77419 2 10.4456 2 12.5C2 14.5544 3.70159 16.2258 5.7931 16.2258C6.84152 16.2258 7.79179 15.8057 8.47903 15.1281L14.5151 18.4219C14.4496 18.6959 14.4138 18.9809 14.4138 19.2742C14.4138 21.3286 16.1154 23 18.2069 23C20.2984 23 22 21.3286 22 19.2742C22 17.2198 20.2984 15.5484 18.2069 15.5484C17.1585 15.5484 16.2082 15.9685 15.521 16.6461L9.4849 13.3523C9.55042 13.0784 9.58621 12.7933 9.58621 12.5C9.58621 12.2067 9.55042 11.9217 9.4849 11.6477L15.521 8.35392C16.2082 9.03155 17.1585 9.45161 18.2069 9.45161ZM18.2069 17.5806C19.1576 17.5806 19.931 18.3404 19.931 19.2742C19.931 20.208 19.1576 20.9677 18.2069 20.9677C17.2562 20.9677 16.4828 20.208 16.4828 19.2742C16.4828 18.3404 17.2562 17.5806 18.2069 17.5806ZM5.7931 14.1935C4.84241 14.1935 4.06897 13.4338 4.06897 12.5C4.06897 11.5662 4.84241 10.8065 5.7931 10.8065C6.74379 10.8065 7.51724 11.5662 7.51724 12.5C7.51724 13.4338 6.74379 14.1935 5.7931 14.1935ZM18.2069 4.03226C19.1576 4.03226 19.931 4.79198 19.931 5.72581C19.931 6.65963 19.1576 7.41935 18.2069 7.41935C17.2562 7.41935 16.4828 6.65963 16.4828 5.72581C16.4828 4.79198 17.2562 4.03226 18.2069 4.03226Z" fill="white"/>
</svg>
